# xmcd
#
# Track frame offsets: 
#        150
#        16650
#        27135
#        40938
#        55863
#        66870
#        78960
#        94935
#        111143
#        123280
#        137215
#        152073
#        162888
#        171178
#        187356
#        193303
#        207696
#        216991
#        227321
#        240996
#        258551
#        276146
#        295631
#        316141
#        329511
#
# Disc length: 4520 seconds
#
# Revision: 0
# Processed by: cddbd v1.5.2PL0 Copyright (c) Steve Scherf et al.
# Submitted via: ExactAudioCopy v0.99pb1
#
DISCID=6911a619
DTITLE=Louis Armstrong - Collection 1
DYEAR=1999
DGENRE=Blues
TTITLE0=01. Louis Armstrong - Go dawn Moses
TTITLE1=02. Louis Armstrong - What A Wonderful World
TTITLE2=03. Louis Armstrong - Sesibon (So Good)
TTITLE3=04. Louis Armstrong - Blueberry Hill
TTITLE4=05. Louis Armstrong - Hello, Dolly
TTITLE5=06. Louis Armstrong - Dipaz-Cripaz
TTITLE6=07. Louis Armstrong - When The Saints Go Marching In
TTITLE7=08. Louis Armstrong - Mack The Knife
TTITLE8=09. Louis Armstrong -Instrumental
TTITLE9=10. Louis Armstrong -Duet With I
TTITLE10=11. Louis Armstrong - Instrumental
TTITLE11=12. Louis Armstrong - Mame
TTITLE12=13. Louis Armstrong - Stjmping At The Savoy
TTITLE13=14. Louis Armstrong - I Got Rhythm
TTITLE14=15. Louis Armstrong - Honeysuckle Rose
TTITLE15=16. Louis Armstrong - When The Saints Go Marching In(Live)
TTITLE16=17. Louis Armstrong - Muskrat Ramble
TTITLE17=18. Louis Armstrong - Way Down Yonder In New Orleans
TTITLE18=19. Louis Armstrong - Ain't Misbehaving(Live)
TTITLE19=20. Louis Armstrong - La Vie En Rose(live)
TTITLE20=21. Louis Armstrong - Cabaret
TTITLE21=22. Louis Armstrong - The Hucklebuck(live)
TTITLE22=23. Louis Armstrong - Its All Over Now
TTITLE23=24. Louis Armstrong - A Kiss To Build Now
TTITLE24=25. Louis Armstrong - Royal Gardens Blues
EXTD=
EXTT0=
EXTT1=
EXTT2=
EXTT3=
EXTT4=
EXTT5=
EXTT6=
EXTT7=
EXTT8=
EXTT9=
EXTT10=
EXTT11=
EXTT12=
EXTT13=
EXTT14=
EXTT15=
EXTT16=
EXTT17=
EXTT18=
EXTT19=
EXTT20=
EXTT21=
EXTT22=
EXTT23=
EXTT24=
PLAYORDER=
